<?xml version="1.0" encoding="UTF-8"?><svg id="a" xmlns="http://www.w3.org/2000/svg" xmlns:xlink="http://www.w3.org/1999/xlink" viewBox="0 0 481.69 476.01"><defs><style>.e{fill:#fff;}.f{fill:url(#c);}.g{fill:url(#b);}.h{fill:url(#d);}</style><linearGradient id="b" x1="55.55" y1="446.19" x2="143.39" y2="446.19" gradientTransform="matrix(1, 0, 0, 1, 0, 0)" gradientUnits="userSpaceOnUse"><stop offset="0" stop-color="#f9ea39"/><stop offset="0" stop-color="#8e7920"/><stop offset=".42" stop-color="#bfa505"/><stop offset=".44" stop-color="#b89e0a"/><stop offset=".5" stop-color="#ad9214"/><stop offset=".58" stop-color="#a68b1a"/><stop offset=".8" stop-color="#a58a1c"/><stop offset="1" stop-color="#e0dd00"/></linearGradient><linearGradient id="c" x1="186.47" x2="292.11" xlink:href="#b"/><linearGradient id="d" x1="352.08" x2="438.38" xlink:href="#b"/></defs><path class="g" d="M142.23,416.57l1.16,13.89h-2.93c-.57-2.45-1.34-4.19-2.32-5.24-1.6-1.69-3.72-2.93-6.37-3.74-2.65-.8-6.14-1.2-10.46-1.2h-14.74v45.27c0,3.64,.69,5.91,2.08,6.82,1.96,1.22,4.97,1.83,9.03,1.83h3.63v1.62h-44.39v-1.62h3.71c4.42,0,7.56-.76,9.42-2.27,1.13-.93,1.7-3.06,1.7-6.38v-45.27h-12.58c-4.89,0-8.36,.2-10.42,.61-2.68,.55-4.97,1.62-6.87,3.19-1.9,1.57-3.04,3.7-3.4,6.38h-2.93l1.24-13.89h85.45Z"/><path class="f" d="M254.04,456.49h-38.52l-6.75,9.2c-1.66,2.26-2.49,3.95-2.49,5.07,0,.89,.72,1.67,2.16,2.34,1.44,.67,4.56,1.11,9.35,1.31v1.59h-31.33v-1.59c4.16-.43,6.85-.99,8.07-1.68,2.49-1.37,5.26-4.17,8.29-8.38l34.99-47.98h2.57l34.63,48.5c2.79,3.9,5.32,6.43,7.59,7.59s5.44,1.81,9.5,1.95v1.59h-39.25v-1.59c3.96-.11,6.64-.5,8.03-1.16,1.39-.66,2.09-1.46,2.09-2.41,0-1.26-.98-3.25-2.93-5.98l-6.02-8.38Zm-2.05-3.18l-16.87-23.56-17.31,23.56h34.19Z"/><path class="h" d="M435.94,459.43l2.44,.31-8.59,16.08h-77.72v-1.62h3.78c4.24,0,7.28-.81,9.1-2.45,1.04-.93,1.55-3.09,1.55-6.47v-38.23c0-3.7-.69-6.01-2.07-6.95-1.92-1.28-4.79-1.92-8.59-1.92h-3.78v-1.62h45.45v1.62c-5.33-.03-9.07,.26-11.21,.87-2.15,.61-3.61,1.38-4.4,2.32-.79,.93-1.18,3.16-1.18,6.68v37.23c0,2.42,.39,4.08,1.18,4.98,.59,.61,1.5,1.06,2.74,1.36,1.23,.29,5.08,.44,11.55,.44h7.33c7.7,0,13.1-.33,16.21-1.01,3.11-.67,5.95-1.86,8.51-3.56,2.57-1.7,5.13-4.39,7.7-8.06Z"/><g><path class="e" d="M342.1,385.88c-5-4.35-10.55-13.83-16.67-28.44l-54.94-131.27-10.66-25.49-2.01-4.42-28.38,12.9-.15,.35-.54,1.26-.34,.79-61.51,143.94c-6.67,15.78-12.73,26.26-18.21,31.42-2.68,2.57-8.6,4.67-17.72,6.28v5.95h68.79v-5.95c-10.53-.76-17.37-2.39-20.54-4.92-3.17-2.52-4.76-5.45-4.76-8.78,0-4.18,1.83-10.53,5.48-19.02l14.12-32.83,.71-1.63h84.58l13.21,31.41c4.29,10.21,6.44,17.67,6.44,22.39,0,3.55-1.52,6.56-4.59,9.03-1.68,1.37-4.23,2.42-7.65,3.15-2.76,.62-6.09,1.01-9.99,1.21v5.95h86.19v-5.95c-8.92-.54-15.87-2.99-20.86-7.33Zm-142.34-71.78l36.96-85.82,1.06-2.46,5.37,12.78,31.69,75.5h-75.07Z"/><path class="e" d="M210.24,197.35l-12.05-26c-1.74,1.6-4.21,3.26-7.4,4.98-3.28,1.79-7.34,3.65-12.16,5.57L47.72,234.18c-11.58,4.62-19.37,6.53-23.39,5.71-7.06-1.46-12.31-6.49-15.73-15.06l-3.05-7.62-5.54,2.21,62.74,157.1,62-4.63-.93-5.35c-14.64-.17-25.92-1.68-33.82-4.54-7.9-2.85-14.26-6.96-19.06-12.34-4.81-5.37-10.31-15.83-16.53-31.38l-5.92-14.82c-5.22-13.06-7.83-21.04-7.82-23.93,0-2.89,.81-5.35,2.43-7.39,2.45-2.83,7.82-5.89,16.1-9.21l127.47-50.91c7.57-3.02,13.53-5.04,17.86-6.03,2.56-.6,4.56-.84,5.99-.72,1.26,.11,2.52,.39,3.78,.84l-4.05-8.73Z"/><g><path class="e" d="M404.35,0l-47.61,19.11,2.56,5.56c9.29-3.45,17.41-4.6,24.33-3.42,6.93,1.18,12.49,3.88,16.69,8.1,3.16,3.27,6.88,9.54,11.16,18.8l10.99,23.86-151.56,69.9c-4.88,2.26-9.1,3.94-12.64,5.06-3.73,1.2-6.72,1.76-8.94,1.68l15.37,33.16c1.57-1.72,3.95-3.56,7.15-5.54,3.2-1.96,7.21-4.06,12.01-6.28l151.57-69.91,12.88,27.94c3.78,8.2,5.49,15.42,5.12,21.69-.37,6.26-2.68,12.2-6.94,17.83-2.66,3.48-7.84,7.64-15.54,12.49l1.76,3.79,.59,1.26,4.72-1.82,11.08-5.77,29.94-15.56L404.35,0Z"/><path class="e" d="M475.39,162.69c-9.36,3.27-17.49,4.23-24.39,2.92-6.9-1.32-12.42-4.13-16.51-8.44-3.1-3.33-6.68-9.67-10.77-19.03l-10.5-24.06,33.64-14.69,2.73-1.2-12.99-28.08-2.73,1.2-33.03,14.42-12.31-28.2c-3.61-8.27-5.17-15.53-4.68-21.78,.5-6.24,2.94-12.15,7.31-17.69,2.73-3.42,7.99-7.48,15.78-12.17l-2.44-5.61-46,22.71,71.37,163.45,47.98-18.14-2.45-5.61Z"/><polygon class="e" points="481.69 166.84 481.52 166.93 481.17 167.09 480.43 167.37 479.84 166.13 469.56 144.35 467.42 139.83 465.89 136.56 467.12 135.97 468.63 139.17 476.05 154.87 481.69 166.84"/><polygon class="e" points="481.52 166.93 481.05 165.67 479.84 166.13 468.64 170.32 452.4 176.44 449.09 177.68 449.58 178.96 452.96 177.69 457.64 175.93 480.43 167.37 481.17 167.09 481.52 166.93"/><rect class="e" x="472.43" y="161.23" width="7.25" height="6.45" transform="translate(-25.37 211.88) rotate(-24.46)"/></g><polygon class="e" points="252.79 185.19 252.02 185.54 224.67 197.97 223.23 198.63 218.24 187.65 210.28 170.15 209.79 169.08 210.96 168.54 239.35 155.64 241.36 160.05 252.79 185.19"/><rect class="e" x="186.38" y="284.35" width="104.58" height="11.93" transform="translate(-117.14 169.28) rotate(-31.79)"/><polygon class="e" points="286.87 392.1 280.76 399.17 276.8 399.17 276.77 399.15 194.06 327.67 188.82 323.13 196.61 314.1 210.42 326.03 286.76 392.01 286.87 392.1"/></g></svg>