<?xml version="1.0" standalone="no"?>
<!DOCTYPE svg PUBLIC "-//W3C//DTD SVG 20010904//EN"
 "http://www.w3.org/TR/2001/REC-SVG-20010904/DTD/svg10.dtd">
<svg version="1.0" xmlns="http://www.w3.org/2000/svg"
 width="892.000000pt" height="858.000000pt" viewBox="0 0 892.000000 858.000000"
 preserveAspectRatio="xMidYMid meet">

<g transform="translate(0.000000,858.000000) scale(0.100000,-0.100000)"
fill="#000000" stroke="none">
<path d="M0 7178 c0 -1334 1 -1400 17 -1385 37 33 101 30 125 -7 17 -24 8 -75
-19 -106 -33 -40 -65 -53 -98 -40 l-25 10 0 -500 0 -500 23 0 c31 -1 55 -22
68 -58 14 -41 -12 -98 -58 -127 l-32 -20 -1 -212 0 -213 25 -6 c14 -3 41 -4
61 -2 33 4 34 3 18 -10 -12 -9 -34 -12 -61 -9 l-43 5 0 -1999 0 -1999 4460 0
4460 0 0 660 c0 727 3 697 -61 719 -16 5 -29 15 -29 20 0 18 30 13 61 -10 l29
-20 0 2319 0 2320 -35 -11 c-25 -7 -45 -7 -73 1 -104 31 -124 162 -36 231 34
26 70 27 112 1 l33 -20 -5 127 c-7 160 -7 206 0 366 l5 127 -26 -24 c-75 -69
-205 -16 -205 85 0 21 5 48 11 61 12 27 68 68 92 68 36 0 87 -30 107 -62 l20
-33 0 828 0 827 -2834 0 -2834 0 -6 -35 c-9 -45 -64 -85 -119 -85 -50 0 -97
43 -97 89 l0 31 -1515 0 -1515 0 0 -1402z m3943 1360 c48 -25 59 -70 33 -133
-34 -80 -150 -87 -196 -13 -45 72 7 158 96 158 25 0 55 -5 67 -12z m1127 -21
c11 -6 27 -26 35 -44 14 -29 14 -36 -1 -73 -19 -48 -55 -70 -114 -70 -52 0
-76 13 -95 50 -31 60 -11 119 49 146 34 15 95 11 126 -9z m2216 -38 c48 -29
68 -93 44 -140 -15 -27 -63 -49 -107 -49 -115 0 -158 161 -54 204 40 16 71 12
117 -15z m-5263 -47 c22 -20 22 -85 0 -123 -19 -32 -68 -59 -108 -59 -38 0
-85 50 -85 91 0 88 127 148 193 91z m6267 18 c-19 -5 -43 -18 -52 -30 -18 -23
-25 -70 -10 -70 5 0 13 -10 19 -22 8 -18 9 -14 9 23 -1 41 0 44 24 41 14 -2
27 -8 28 -13 2 -5 11 -9 20 -10 14 0 13 -2 -3 -9 -11 -5 -14 -9 -6 -9 8 -1 11
-7 7 -17 -4 -9 -2 -13 5 -8 7 4 10 1 7 -7 -3 -8 -14 -15 -26 -17 -12 -2 -22
-8 -22 -13 0 -12 27 -12 35 1 3 6 14 10 23 10 9 0 24 5 32 10 13 9 13 11 0 19
-12 9 -12 11 3 17 10 4 16 13 13 21 -3 8 -1 11 4 8 17 -10 11 -51 -10 -78 -28
-35 -78 -44 -125 -21 -46 21 -69 56 -68 101 2 51 36 83 87 82 l41 -1 -35 -8z
m95 -40 c3 -5 -1 -10 -10 -10 -9 0 -13 5 -10 10 3 6 8 10 10 10 2 0 7 -4 10
-10z m-2330 -210 c3 -6 -1 -7 -9 -4 -18 7 -21 14 -7 14 6 0 13 -4 16 -10z
m-5376 -15 c85 -43 33 -185 -68 -185 -47 0 -91 34 -91 70 0 39 29 89 62 110
39 24 59 25 97 5z m5275 -3 c-7 -4 -16 -24 -22 -44 -9 -32 -7 -42 12 -70 17
-26 31 -34 66 -39 48 -7 70 -2 49 12 -10 6 -9 9 6 14 40 13 50 23 56 56 6 34
6 34 8 -8 2 -58 -39 -93 -110 -93 -42 0 -54 5 -79 30 -24 25 -30 39 -30 75 0
43 18 75 43 75 9 0 9 -2 1 -8z m93 -68 c12 -11 11 -19 -3 -46 -15 -29 -18 -30
-29 -14 -7 9 -16 17 -19 17 -18 -2 -22 1 -23 19 -1 11 2 20 8 20 5 0 9 7 9 16
0 18 35 11 57 -12z m-3296 -13 c54 -55 34 -147 -41 -186 -37 -19 -63 -19 -100
0 -81 42 -72 163 13 200 53 23 95 19 128 -14z m810 -172 c18 -9 20 -20 18 -94
-1 -76 -4 -86 -25 -100 -27 -17 -86 -20 -115 -5 -25 14 -49 62 -49 99 0 32 40
88 74 101 30 12 74 12 97 -1z m4722 -6 c-43 -6 -73 -48 -73 -102 0 -23 5 -41
10 -41 6 0 10 -6 10 -13 0 -8 16 -19 35 -25 47 -14 93 0 122 35 17 21 23 24
23 11 0 -9 -14 -28 -32 -43 -28 -24 -39 -27 -82 -22 -66 6 -106 47 -106 108 0
54 43 100 92 97 l33 -1 -32 -4z m-7108 -59 c24 -37 13 -40 -14 -4 -12 17 -17
30 -12 30 5 0 16 -12 26 -26z m7121 -11 c-4 -5 -12 -8 -17 -8 -17 0 -4 -19 13
-20 24 -2 32 -11 25 -29 -8 -20 -27 -12 -50 20 -21 28 -15 44 15 44 12 0 18
-3 14 -7z m-7705 -72 c33 -34 37 -67 13 -113 -25 -48 -54 -67 -100 -68 -52 0
-88 35 -87 84 3 104 108 163 174 97z m7673 14 c3 -8 1 -15 -4 -15 -6 0 -10 7
-10 15 0 8 2 15 4 15 2 0 6 -7 10 -15z m-7227 -65 c14 -11 21 -20 15 -20 -12
0 -60 39 -49 40 5 0 20 -9 34 -20z m6046 -32 c-18 -23 -25 -68 -11 -68 8 0 6
-5 -4 -11 -41 -23 29 -89 95 -89 21 0 39 10 62 34 37 40 54 37 25 -4 -63 -88
-210 -42 -210 65 0 41 22 85 42 85 7 0 7 -4 1 -12z m80 -73 c7 16 10 17 17 5
13 -20 13 -43 0 -35 -6 4 -9 -3 -7 -16 3 -26 -16 -35 -34 -16 -8 7 -20 12 -27
9 -6 -2 -12 2 -13 10 0 7 -2 23 -3 36 -2 17 1 21 15 17 9 -3 21 0 25 7 6 9 10
5 14 -12 5 -23 6 -24 13 -5z m-4268 9 c36 -14 56 -90 35 -136 -15 -31 -73 -68
-108 -68 -51 0 -102 47 -101 95 1 29 2 28 11 -8 7 -25 19 -42 39 -52 32 -17
99 -20 99 -5 0 6 6 10 13 10 7 0 20 17 29 39 14 31 15 45 6 75 -8 24 -17 36
-29 36 -10 0 -21 5 -24 10 -7 11 6 13 30 4z m-1001 -55 c43 -20 59 -96 31
-149 -22 -43 -53 -60 -108 -60 -66 0 -97 30 -97 95 0 51 20 89 59 110 32 17
82 19 115 4z m975 -52 c26 -28 15 -42 -36 -45 -33 -2 -54 15 -34 28 7 4 11 11
10 16 -6 32 29 33 60 1z m-1892 -112 c16 -18 23 -39 23 -67 0 -34 -6 -47 -40
-80 -37 -38 -43 -40 -83 -35 -100 14 -118 129 -30 196 38 29 99 23 130 -14z
m210 -45 c1 0 9 -13 18 -30 44 -85 -13 -180 -107 -180 -44 0 -74 22 -88 65
-29 87 57 178 145 153 16 -4 31 -8 32 -8z m814 -89 c24 -24 29 -38 29 -78 0
-82 -48 -132 -126 -133 -51 0 -88 27 -104 76 -10 30 -9 43 5 81 32 84 137 113
196 54z m4370 -78 c13 -16 12 -17 -3 -4 -10 7 -18 15 -18 17 0 8 8 3 21 -13z
m-4804 -38 c31 -22 47 -87 33 -130 -18 -54 -62 -85 -120 -85 -42 0 -52 4 -74
31 -44 52 -34 129 22 176 32 27 106 31 139 8z m4804 -28 c-8 -8 -11 -7 -11 4
0 9 3 19 7 23 4 4 9 2 11 -4 3 -7 -1 -17 -7 -23z m-3444 -122 c12 -8 27 -33
33 -56 37 -137 -152 -230 -223 -109 -35 59 -6 148 57 176 36 16 99 11 133 -11z
m1659 -92 c22 -26 25 -27 35 -10 13 22 28 22 54 -3 21 -19 55 -19 55 0 0 5 18
7 40 5 22 -2 40 1 40 6 0 18 16 9 32 -18 9 -16 19 -45 23 -65 7 -35 6 -36 -17
-31 -20 6 -21 5 -10 -10 8 -9 19 -14 26 -11 7 3 18 -7 26 -21 7 -14 17 -25 21
-25 4 0 10 -18 14 -39 4 -22 13 -42 20 -45 10 -3 12 1 9 12 -4 14 -3 14 8 -2
51 -73 75 -88 64 -38 l-7 27 16 -23 c9 -13 25 -22 34 -20 10 2 37 -14 60 -34
22 -21 46 -38 52 -38 6 0 27 -18 47 -39 20 -22 57 -47 82 -57 25 -10 48 -23
53 -30 20 -34 60 -73 68 -68 5 3 0 19 -11 35 -12 16 -18 29 -13 29 14 -1 43
-27 43 -39 0 -6 3 -11 8 -11 4 0 13 -10 21 -21 11 -19 11 -21 -3 -16 -9 4 -16
1 -16 -6 0 -8 -4 -7 -11 3 -8 12 -9 10 -4 -7 4 -14 2 -23 -4 -23 -6 0 -11 -9
-11 -20 0 -37 -54 -43 -80 -8 -3 3 -18 10 -34 14 -26 6 -28 5 -21 -16 l7 -22
-28 21 c-23 16 -36 19 -64 13 -19 -4 -44 -7 -55 -5 -68 10 -149 13 -163 7 -10
-4 -27 -6 -39 -5 -13 1 -23 -1 -23 -6 0 -11 -83 -14 -90 -3 -3 5 -15 3 -28 -4
l-22 -12 30 -34 c18 -20 30 -45 30 -62 0 -23 4 -28 24 -28 14 0 28 -5 32 -11
5 -8 9 -8 14 1 5 9 17 9 49 0 23 -6 50 -10 59 -9 9 2 26 0 37 -4 11 -3 38 -9
60 -11 81 -11 119 -25 147 -55 16 -17 34 -31 40 -31 13 0 48 -39 48 -54 0 -6
14 -22 30 -36 17 -14 30 -29 30 -35 0 -12 33 -43 82 -75 21 -14 38 -28 38 -32
0 -4 9 -16 20 -26 29 -27 16 -54 -24 -50 -19 2 -37 -3 -48 -14 -19 -19 -92
-18 -111 1 -16 16 -24 13 -29 -7 -5 -16 -14 -18 -74 -15 -38 1 -89 5 -114 7
-213 22 -271 26 -265 16 3 -5 1 -12 -5 -15 -7 -4 -3 -13 10 -25 20 -18 20 -18
0 -23 -25 -6 -26 -24 -2 -31 9 -3 51 -6 92 -7 41 -2 91 -8 110 -14 38 -13 169
-8 184 6 14 13 54 11 110 -6 27 -8 68 -15 92 -15 24 0 45 -4 48 -9 10 -15 96
-24 111 -11 10 9 19 8 35 0 12 -7 33 -10 46 -7 13 2 21 1 19 -4 -9 -14 14 -20
49 -14 23 5 37 15 46 33 l12 27 18 -23 c10 -12 25 -21 32 -20 8 2 13 -6 12
-19 0 -13 2 -23 6 -23 7 0 31 -69 37 -105 21 -128 19 -204 -8 -274 -20 -51
-22 -76 -25 -303 -1 -153 -7 -267 -14 -299 -7 -28 -10 -70 -7 -93 5 -31 1 -50
-13 -73 -12 -20 -21 -59 -24 -105 -8 -112 -17 -172 -27 -184 -5 -6 -14 -45
-19 -88 -6 -42 -18 -95 -26 -118 -8 -22 -14 -55 -14 -72 -1 -52 -26 -140 -55
-191 -14 -27 -36 -73 -47 -102 -10 -29 -24 -53 -29 -53 -5 0 -18 -20 -29 -45
-11 -25 -31 -57 -45 -72 -14 -16 -25 -33 -25 -40 0 -7 -13 -22 -30 -35 -16
-12 -30 -30 -30 -39 0 -10 -9 -21 -20 -24 -22 -7 -26 -20 -10 -30 10 -6 -12
-38 -87 -122 -32 -35 -42 -66 -25 -77 11 -6 3 -64 -9 -72 -5 -3 -9 -20 -9 -37
0 -18 -4 -48 -10 -67 -7 -23 -6 -36 1 -41 13 -8 2 -132 -12 -137 -13 -5 -11
-119 2 -127 6 -4 9 -23 7 -44 -2 -29 1 -35 14 -33 10 1 20 -9 27 -29 14 -42
14 -49 -4 -49 -8 0 -15 -7 -15 -15 0 -8 6 -15 14 -15 8 0 17 -7 20 -16 3 -8 2
-13 -3 -10 -12 8 -21 -19 -21 -65 0 -28 4 -39 15 -39 25 0 16 -14 -21 -32 -30
-16 -35 -16 -40 -3 -9 22 -34 18 -34 -5 0 -11 -12 -27 -27 -37 -16 -9 -36 -25
-46 -35 -10 -11 -32 -21 -48 -25 -16 -3 -29 -10 -29 -15 0 -5 -9 -4 -19 2 -11
5 -27 7 -35 4 -11 -4 -16 0 -17 12 0 11 -3 14 -6 7 -2 -7 -12 -13 -21 -13 -9
0 -35 -11 -58 -24 -31 -17 -46 -21 -65 -14 -29 11 -100 4 -131 -13 -20 -11
-146 -20 -293 -20 -89 0 -294 17 -480 40 -90 10 -209 39 -260 61 -22 10 -70
30 -107 45 -37 15 -82 41 -100 56 -17 16 -35 29 -39 29 -6 0 -63 55 -103 100
-10 12 -15 98 -7 118 1 1 0 4 -1 5 -2 2 4 12 12 22 13 15 12 19 -5 31 -10 8
-13 14 -7 14 13 0 11 106 -3 168 -6 26 -4 32 9 32 12 0 14 7 9 33 -3 17 -10
40 -15 50 -5 10 -5 17 0 17 11 0 27 57 23 80 -7 54 0 177 14 235 12 45 15 84
11 117 -4 27 -3 54 1 61 11 18 13 77 2 77 -5 0 -9 6 -9 13 0 7 -9 29 -20 50
-11 20 -20 45 -20 55 0 11 -9 29 -19 41 -14 16 -18 31 -14 57 3 19 1 40 -6 47
-8 11 -5 19 14 37 37 35 35 100 -5 150 -16 21 -30 49 -30 63 0 40 -19 79 -51
109 -22 20 -29 36 -29 63 0 19 -9 70 -21 113 -12 46 -19 92 -16 116 3 21 1 50
-4 64 -5 14 -14 86 -19 161 -6 75 -15 190 -20 256 -11 120 -6 205 10 205 5 0
12 10 15 23 4 12 19 34 33 50 22 23 34 27 77 27 95 0 124 -21 125 -87 0 -14 6
-23 15 -23 8 0 15 -4 15 -8 0 -20 66 -28 125 -15 191 42 202 42 288 -13 31
-20 37 -30 37 -59 0 -19 5 -35 10 -35 6 0 10 4 10 10 0 5 19 14 43 21 97 26
146 43 212 74 137 62 171 70 219 50 50 -21 93 -19 106 4 5 11 10 40 10 65 0
37 -6 51 -35 82 -26 27 -35 46 -35 71 0 35 27 93 43 93 5 0 17 10 27 22 15 20
16 26 5 48 -7 14 -16 41 -20 60 -10 51 -31 78 -72 95 -20 9 -44 22 -52 30 -83
77 -203 151 -239 148 -9 -1 -12 6 -8 22 3 13 2 35 -3 48 -10 26 -61 57 -93 57
-10 0 -18 4 -18 9 0 5 -19 11 -42 15 -24 4 -61 15 -83 26 -40 19 -91 36 -177
61 -27 7 -48 17 -48 21 0 4 -10 8 -22 8 -21 1 -21 2 -5 11 9 5 17 18 17 28 0
11 7 21 15 25 8 3 15 17 15 31 0 15 7 28 18 32 28 11 72 46 72 58 0 37 216 74
268 46 11 -6 23 -7 26 -3 5 9 52 8 111 -2 39 -7 39 -6 18 9 -26 20 -20 45 12
45 22 0 65 30 65 46 0 4 -5 3 -12 -4 -15 -15 -45 -16 -53 -2 -4 6 1 22 10 36
16 24 15 26 -3 31 -14 3 -18 11 -15 28 3 12 0 26 -6 29 -16 10 -14 26 3 20 9
-4 14 3 14 20 0 26 -13 35 -20 15 -3 -9 -10 -9 -27 0 -13 7 -32 10 -43 8 -29
-8 -60 13 -46 30 6 7 9 14 7 14 -5 2 -46 7 -89 12 -28 2 -35 7 -33 23 1 10 -5
22 -12 27 -8 4 -21 21 -29 39 -15 29 -15 33 0 50 10 10 21 18 26 18 5 0 30 16
55 35 44 33 93 47 93 25 0 -5 7 -10 15 -10 17 0 21 26 4 32 -6 2 13 5 42 6 38
2 59 8 76 23 21 21 41 34 90 60 19 10 26 9 41 -4 11 -10 26 -14 40 -10 28 7
82 59 82 78 0 8 9 17 20 20 11 3 23 17 26 31 8 32 29 30 60 -3z m3097 -118
c-3 -9 -8 -14 -10 -11 -3 3 -2 9 2 15 9 16 15 13 8 -4z m-4917 -72 c4 -14 1
-29 -6 -36 -10 -9 -11 -9 -8 3 3 8 -1 27 -8 42 -13 24 -12 27 1 22 8 -4 18
-17 21 -31z m-161 -15 c-6 -26 -5 -30 9 -25 10 4 15 3 11 -3 -8 -13 15 -36 41
-43 14 -3 12 -5 -8 -6 -14 0 -34 2 -43 5 -24 9 -36 49 -25 79 13 35 23 31 15
-7z m5175 -10 c0 -18 -2 -20 -9 -8 -6 8 -7 18 -5 22 9 14 14 9 14 -14z m-5090
-18 c0 -24 -25 -27 -34 -4 -4 12 -2 15 9 10 8 -3 15 -1 15 4 0 6 2 10 5 10 3
0 5 -9 5 -20z m5036 -47 c-6 -6 -36 9 -36 18 0 5 9 4 20 -3 10 -7 18 -14 16
-15z m129 7 c-3 -5 -12 -10 -18 -10 -7 0 -6 4 3 10 19 12 23 12 15 0z m-38
-16 c-3 -3 -12 -4 -19 -1 -8 3 -5 6 6 6 11 1 17 -2 13 -5z m-6927 -54 c0 -5
-2 -10 -4 -10 -3 0 -8 5 -11 10 -3 6 -1 10 4 10 6 0 11 -4 11 -10z m7231 0
c11 0 36 -15 56 -33 31 -29 37 -41 41 -90 4 -54 3 -58 -31 -92 -30 -30 -42
-35 -81 -35 -88 0 -136 47 -136 133 0 30 7 53 22 72 23 30 75 57 96 50 8 -3
22 -5 33 -5z m-7377 -86 c3 -8 2 -12 -4 -9 -6 3 -10 10 -10 16 0 14 7 11 14
-7z m1149 -25 c30 -16 37 -28 37 -65 0 -67 -86 -122 -146 -93 -15 8 -35 26
-44 41 -14 25 -13 30 4 62 29 55 99 81 149 55z m4813 -61 c28 -45 0 -123 -30
-83 -9 12 -19 15 -35 10 -36 -11 -18 -30 32 -33 39 -3 53 2 84 25 33 25 35 26
25 6 -19 -34 -53 -53 -97 -53 -57 0 -77 17 -79 68 -2 40 13 57 29 32 3 -5 12
-10 18 -9 7 0 2 7 -10 16 -13 8 -23 19 -23 23 0 11 80 9 86 -2z m-1196 -48 c0
-5 -4 -10 -10 -10 -5 0 -10 5 -10 10 0 6 5 10 10 10 6 0 10 -4 10 -10z m2315
-51 c-70 -22 -99 -111 -54 -168 51 -65 141 -60 181 10 12 21 23 37 25 35 10
-9 -27 -74 -50 -89 -29 -19 -92 -22 -131 -7 -37 14 -66 67 -66 119 0 37 5 49
36 77 23 22 45 34 62 33 l27 -1 -30 -9z m-797 -40 c37 -30 52 -60 52 -105 0
-78 -64 -131 -148 -121 -115 13 -152 157 -58 233 40 32 109 29 154 -7z m838
-51 c3 -10 10 -18 15 -18 5 0 9 -4 9 -10 0 -5 -7 -10 -15 -10 -8 0 -15 -5 -15
-11 0 -12 -29 -38 -43 -39 -5 0 -5 5 -2 10 3 6 -1 10 -9 10 -10 0 -13 6 -9 17
4 11 3 14 -5 9 -8 -5 -12 0 -12 13 0 12 7 21 15 21 8 0 12 6 9 14 -4 9 4 13
26 12 19 -1 32 -7 36 -18z m-2401 -7 c3 -5 1 -12 -5 -16 -5 -3 -10 1 -10 9 0
18 6 21 15 7z m40 -31 c3 -5 1 -10 -4 -10 -6 0 -11 5 -11 10 0 6 2 10 4 10 3
0 8 -4 11 -10z m-4532 -57 c20 -19 23 -80 4 -103 -41 -53 -121 -67 -157 -28
-72 78 73 203 153 131z m4647 13 c0 -11 -19 -15 -25 -6 -3 5 1 10 9 10 9 0 16
-2 16 -4z m40 -31 c0 -5 -5 -3 -10 5 -5 8 -10 20 -10 25 0 6 5 3 10 -5 5 -8
10 -19 10 -25z m-3090 -25 c-15 -27 -4 -41 25 -34 31 8 65 -12 65 -38 0 -29
-38 -68 -65 -68 -12 0 -34 9 -49 21 -34 27 -36 82 -4 116 27 28 42 30 28 3z
m124 4 c9 -8 16 -23 15 -32 0 -14 -2 -14 -6 -2 -3 8 -15 23 -27 32 -11 10 -16
18 -9 18 6 0 19 -7 27 -16z m-1121 -176 c23 -27 22 -59 -4 -92 -45 -58 -114
-72 -154 -31 -32 31 -32 66 0 102 l25 28 -17 -34 c-10 -23 -13 -36 -6 -38 6
-2 9 -12 6 -22 -6 -23 46 -46 82 -37 36 9 32 30 -5 23 -35 -7 -44 3 -35 42 5
23 11 29 31 27 13 0 22 -5 20 -11 -5 -14 13 -45 25 -45 7 0 9 10 5 26 -5 17
-3 23 4 19 23 -14 8 35 -17 56 l-28 21 25 -7 c14 -4 33 -16 43 -27z m2060
-147 c31 -5 63 -13 69 -18 7 -4 19 -8 28 -9 96 -15 156 -32 172 -51 10 -12 3
-14 -38 -12 -112 4 -319 -41 -332 -73 -2 -4 -10 -8 -18 -8 -8 0 -14 -7 -14
-15 0 -10 -10 -15 -27 -15 l-28 -1 24 -20 c21 -17 22 -22 10 -30 -32 -22 -46
-27 -98 -33 -90 -12 -109 23 -74 136 11 36 25 59 36 62 9 2 17 13 17 24 0 13
9 22 27 27 15 3 35 16 45 27 17 20 27 20 73 3 l20 -8 -20 17 c-19 16 -18 16
25 12 25 -2 71 -9 103 -15z m-2773 -96 c27 -14 30 -20 30 -65 0 -44 -3 -51
-37 -79 -50 -41 -102 -43 -132 -5 -28 36 -26 76 6 114 42 50 83 61 133 35z
m4744 -31 c9 -24 7 -28 -9 -14 -17 14 -20 30 -6 30 5 0 12 -7 15 -16z m46 0
c0 -8 -5 -12 -10 -9 -6 4 -8 11 -5 16 9 14 15 11 15 -7z m-104 -50 c12 -2 25
-11 28 -20 5 -12 1 -14 -17 -7 -12 4 -35 8 -52 8 -16 0 -40 8 -53 16 -22 16
-22 17 25 12 26 -2 58 -6 69 -9z m-2555 -21 c3 -106 -10 -166 -38 -177 -13 -5
-14 4 -9 71 7 80 22 133 37 133 5 0 9 -12 10 -27z m2729 -13 c0 -5 -2 -10 -4
-10 -3 0 -8 5 -11 10 -3 6 -1 10 4 10 6 0 11 -4 11 -10z m-3175 -106 c-21 -41
-19 -51 15 -86 34 -33 36 -38 16 -38 -8 0 -26 14 -41 32 -30 35 -29 76 2 110
22 25 26 17 8 -18z m1285 -14 c0 -5 -7 -10 -16 -10 -8 0 -12 5 -9 10 3 6 10
10 16 10 5 0 9 -4 9 -10z m4087 -26 c54 -34 74 -112 43 -168 -37 -70 -149 -88
-197 -31 -13 14 -23 31 -23 36 0 6 10 -2 23 -17 18 -20 35 -28 73 -31 44 -4
52 -1 82 26 24 23 32 38 32 65 0 20 -4 36 -9 36 -5 0 -7 8 -4 19 6 24 -54 71
-91 71 -16 0 -42 -10 -59 -22 l-32 -22 19 22 c35 41 94 47 143 16z m-5311 -31
c-14 -14 -23 4 -13 27 l10 25 5 -23 c2 -13 1 -26 -2 -29z m344 -28 c0 -14 -4
-25 -8 -25 -7 0 -8 31 -3 48 4 11 11 -3 11 -23z m4966 -34 c9 -45 8 -50 -14
-70 -32 -29 -39 -27 -62 19 -11 22 -18 40 -14 40 4 0 1 7 -6 15 -15 18 -3 40
14 26 9 -8 18 -6 32 8 27 26 39 17 50 -38z m-179 -23 c-3 -7 -5 -2 -5 12 0 14
2 19 5 13 2 -7 2 -19 0 -25z m-4795 -20 c-10 -22 -11 -21 -11 12 -1 26 2 31
11 22 8 -8 8 -17 0 -34z m-1438 0 c45 -64 -17 -158 -105 -160 -40 -1 -79 36
-79 76 0 33 34 86 46 73 4 -4 2 -7 -4 -7 -6 0 -14 -16 -18 -36 -5 -29 -2 -40
17 -60 12 -13 32 -24 43 -24 17 0 15 4 -14 28 -32 27 -36 57 -5 45 9 -3 15 1
15 10 0 8 10 17 23 19 19 4 26 -2 36 -24 12 -27 11 -31 -8 -44 -24 -18 -27
-34 -6 -34 8 0 15 5 15 11 0 7 7 17 16 24 18 13 28 71 14 80 -6 3 -15 15 -20
26 -15 28 14 26 34 -3z m5074 -169 c15 -28 9 -157 -9 -190 -16 -30 -31 -19
-62 47 -16 32 -33 61 -38 62 -11 4 -12 82 -1 99 4 7 19 16 32 22 30 11 58 -4
78 -40z m-3588 1 c0 -5 -4 -10 -9 -10 -6 0 -13 5 -16 10 -3 6 1 10 9 10 9 0
16 -4 16 -10z m5414 -21 c36 -29 56 -70 56 -120 0 -35 -6 -48 -39 -80 -32 -32
-46 -39 -78 -39 -90 0 -136 42 -135 121 1 79 56 139 127 139 28 0 51 -7 69
-21z m-8229 -64 c31 -30 32 -69 3 -112 -32 -46 -76 -66 -117 -52 -52 18 -67
74 -35 128 36 61 107 78 149 36z m6263 -1 c22 -15 31 -64 12 -64 -5 0 -10 -13
-10 -30 0 -25 -4 -30 -25 -30 -18 0 -23 4 -19 15 4 9 0 15 -10 15 -20 0 -21
20 -1 46 8 10 15 29 15 42 0 26 8 27 38 6z m-4225 -55 c52 -23 63 -108 22
-158 -72 -85 -195 -48 -195 59 0 42 15 67 53 90 36 22 84 26 120 9z m5067 -24
c44 -23 70 -62 70 -107 0 -79 -72 -137 -144 -117 -47 13 -46 18 2 12 28 -4 44
0 62 15 l25 21 -41 -6 c-23 -3 -50 0 -60 6 -11 6 -13 11 -6 11 6 0 12 5 12 11
0 6 -6 9 -13 6 -15 -6 -40 40 -26 49 5 3 7 10 4 15 -7 10 18 39 33 39 5 0 23
7 38 15 27 14 27 15 6 15 -12 0 -38 -6 -57 -14 -45 -19 -38 5 8 28 40 19 51
20 87 1z m-139 -96 c-6 -24 -9 -28 -10 -12 -1 24 9 56 16 50 2 -3 0 -20 -6
-38z m-711 22 c12 -2 34 -49 42 -88 20 -108 23 -129 20 -145 -7 -33 -92 -16
-92 18 0 11 -6 14 -16 10 -12 -4 -15 -2 -10 9 6 17 -9 21 -19 5 -9 -14 -35
-12 -35 3 0 6 -7 25 -16 42 -16 31 -12 95 6 95 6 0 10 12 10 28 0 26 1 27 53
25 28 0 54 -2 57 -2z m-3434 -133 c54 -38 57 -63 16 -128 -6 -9 -77 1 -85 13
-8 12 0 123 9 139 8 12 12 10 60 -24z m5075 -129 c39 -27 59 -69 59 -120 0
-35 -6 -48 -39 -80 -32 -33 -45 -39 -79 -39 -58 0 -89 15 -112 52 -37 60 -21
130 40 182 39 32 90 34 131 5z m-1791 -34 c19 -23 6 -74 -34 -134 -60 -89 -36
-157 39 -117 39 22 47 18 63 -32 10 -28 8 -36 -9 -53 -14 -14 -29 -19 -47 -15
-15 3 -50 8 -78 11 -46 6 -52 4 -56 -13 -9 -32 13 -62 67 -92 46 -26 85 -69
85 -95 0 -16 -55 -45 -85 -45 -14 0 -39 7 -54 14 -37 20 -91 82 -91 105 0 11
14 52 31 92 35 81 82 225 101 307 7 29 18 52 25 52 7 0 13 7 13 15 0 19 14 19
30 0z m2138 -22 c13 -8 32 -34 43 -57 32 -73 -2 -144 -80 -167 -28 -8 -44 -8
-57 -1 -16 10 -12 11 23 12 30 0 50 7 73 26 17 15 29 29 26 31 -3 3 0 17 5 31
23 60 -50 140 -119 130 -38 -5 -41 -1 -9 12 26 11 63 5 95 -17z m-5394 -55
c34 -48 13 -108 -37 -108 -46 0 -81 34 -72 69 8 31 4 27 45 45 46 20 46 20 64
-6z m5376 -24 c0 -11 5 -14 16 -10 13 5 14 4 6 -7 -7 -7 -13 -22 -15 -33 -1
-10 -7 -25 -11 -33 -8 -12 -11 -11 -23 4 -7 11 -13 13 -13 7 0 -7 -4 -12 -9
-12 -10 0 -25 39 -21 55 1 6 3 16 3 23 0 14 13 16 22 2 3 -5 12 -7 20 -4 8 4
12 10 9 15 -3 5 0 9 5 9 6 0 11 -7 11 -16z m-7024 -42 c43 -30 56 -100 27
-142 -32 -45 -56 -59 -105 -60 -40 0 -50 4 -72 31 -41 48 -29 112 30 158 27
21 97 29 120 13z m5046 -14 c-7 -7 -12 -8 -12 -2 0 14 12 26 19 19 2 -3 -1
-11 -7 -17z m1873 -76 c-6 -6 -34 11 -39 24 -4 11 0 10 18 -3 13 -10 23 -19
21 -21z m-6077 3 c-3 -3 -9 2 -12 12 -6 14 -5 15 5 6 7 -7 10 -15 7 -18z
m-1783 -51 c21 -8 45 -56 45 -89 0 -62 -53 -115 -114 -115 -98 0 -126 116 -45
185 30 25 78 33 114 19z m243 -89 c67 -78 -21 -212 -121 -184 -46 12 -67 42
-67 95 0 46 34 97 74 115 35 14 89 2 114 -26z m-578 1 c0 -2 -9 -6 -20 -9 -11
-3 -20 -1 -20 4 0 5 9 9 20 9 11 0 20 -2 20 -4z m42 -23 c9 -10 19 -29 22 -43
6 -23 6 -23 -5 -5 -6 11 -21 30 -32 43 -11 12 -16 22 -10 22 5 0 17 -8 25 -17z
m2497 -22 c-29 -30 -36 -55 -20 -79 6 -10 12 -7 24 12 15 22 19 23 46 13 18
-6 31 -20 34 -34 2 -12 1 -20 -3 -18 -4 3 -13 -2 -20 -10 -14 -16 -49 -11 -62
9 -5 7 -8 6 -8 -3 0 -8 7 -23 17 -33 25 -28 -1 -21 -31 8 -36 37 -37 104 -1
139 13 14 31 25 39 25 9 0 4 -10 -15 -29z m-1198 -1 c46 -13 69 -47 69 -102 0
-89 -74 -152 -151 -129 -125 38 -94 220 41 240 3 1 21 -4 41 -9z m6599 -5 c11
-13 10 -14 -4 -9 -9 3 -16 10 -16 15 0 13 6 11 20 -6z m-50 -64 c0 -5 -7 -11
-14 -14 -10 -4 -13 -1 -9 9 6 15 23 19 23 5z m-7915 -11 c3 -5 -1 -10 -10 -10
-9 0 -13 5 -10 10 3 6 8 10 10 10 2 0 7 -4 10 -10z m1752 -11 c-9 -5 -22 -7
-27 -4 -6 4 -27 -11 -46 -32 -31 -33 -34 -42 -29 -73 8 -41 18 -56 45 -63 26
-7 25 -3 -5 27 -25 25 -34 66 -15 66 6 0 10 10 11 23 0 12 3 16 6 10 7 -19 30
-16 43 5 9 16 11 16 21 -1 8 -14 14 -16 25 -6 11 9 16 6 24 -15 5 -14 7 -33 3
-42 -4 -12 -2 -15 8 -12 28 9 22 56 -11 89 -33 34 -34 45 -1 34 29 -9 51 -55
51 -106 0 -35 -6 -47 -36 -75 -30 -29 -43 -34 -82 -34 -58 0 -87 19 -102 65
-23 69 35 155 103 155 27 -1 29 -2 14 -11z m-774 -56 c9 -9 22 -33 29 -55 22
-75 -39 -153 -119 -153 -115 0 -138 159 -32 217 38 21 92 17 122 -9z m5766
-39 c17 -14 31 -31 30 -37 0 -8 -2 -8 -6 1 -2 6 -9 12 -15 12 -5 0 -16 7 -24
15 -9 8 -29 15 -45 15 -18 0 -28 4 -24 10 11 18 53 10 84 -16z m-19 -75 c0 -6
-6 -17 -14 -24 -12 -12 -15 -12 -20 1 -3 9 -4 20 0 25 7 13 34 11 34 -2z
m-4411 -23 c33 -18 51 -54 51 -106 0 -32 -7 -46 -35 -75 -40 -40 -70 -50 -119
-41 -81 15 -114 121 -59 186 14 18 36 36 47 40 33 13 84 11 115 -4z m4369 -41
c-3 -3 -9 2 -12 12 -6 14 -5 15 5 6 7 -7 10 -15 7 -18z m-4015 -179 c49 -20
69 -50 75 -106 5 -55 -8 -79 -60 -106 -38 -20 -75 -17 -115 7 -82 51 -82 168
0 204 41 18 60 18 100 1z m6034 -2223 c3 -7 -3 -9 -17 -6 -29 8 -37 25 -9 21
12 -1 24 -8 26 -15z m43 -13 c0 -5 -4 -10 -10 -10 -5 0 -10 5 -10 10 0 6 5 10
10 10 6 0 10 -4 10 -10z"/>
<path d="M3856 8524 c-4 -11 0 -15 16 -12 12 2 23 9 26 16 6 18 -35 15 -42 -4z"/>
<path d="M4966 8501 c-4 -7 -5 -15 -2 -18 9 -9 19 4 14 18 -4 11 -6 11 -12 0z"/>
<path d="M7213 8469 c11 -7 23 -7 35 0 14 9 11 10 -18 10 -29 0 -32 -1 -17
-10z"/>
<path d="M7266 8455 c-3 -8 -1 -17 3 -20 5 -3 11 2 15 10 3 8 1 17 -3 20 -5 3
-11 -2 -15 -10z"/>
<path d="M1940 8425 c-7 -9 -10 -18 -7 -21 9 -9 48 16 42 27 -9 13 -21 11 -35
-6z"/>
<path d="M630 8171 c0 -5 9 -11 20 -14 24 -6 27 8 4 17 -21 8 -24 8 -24 -3z"/>
<path d="M3477 7913 c-9 -8 12 -33 28 -33 14 0 27 25 18 34 -8 8 -38 8 -46 -1z"/>
<path d="M3445 7891 c-3 -5 -2 -12 3 -15 5 -3 9 1 9 9 0 17 -3 19 -12 6z"/>
<path d="M550 7770 c0 -5 5 -10 11 -10 5 0 7 5 4 10 -3 6 -8 10 -11 10 -2 0
-4 -4 -4 -10z"/>
<path d="M1820 7561 c0 -6 9 -9 20 -8 11 1 20 5 20 9 0 4 -9 8 -20 8 -11 0
-20 -4 -20 -9z"/>
<path d="M821 7289 c10 -14 28 -25 45 -27 32 -3 35 -6 -37 37 -23 14 -23 14
-8 -10z"/>
<path d="M2765 6850 c3 -5 11 -10 16 -10 6 0 7 5 4 10 -3 6 -11 10 -16 10 -6
0 -7 -4 -4 -10z"/>
<path d="M4942 5533 c-15 -3 -36 -26 -60 -64 -21 -33 -44 -59 -53 -59 -25 0
-84 -27 -99 -44 -7 -9 -9 -16 -4 -16 5 -1 -6 -13 -23 -28 -18 -16 -34 -39 -35
-53 -2 -13 -10 -29 -18 -36 -13 -11 -13 -12 3 -13 10 0 17 -8 17 -19 0 -10 7
-21 15 -25 8 -3 15 -11 15 -18 0 -6 36 -47 80 -90 44 -43 80 -82 80 -87 0 -5
26 -29 58 -54 31 -25 66 -54 76 -63 73 -66 198 -91 280 -58 25 11 46 25 46 32
0 7 13 12 33 12 18 0 38 5 44 11 7 7 36 11 65 10 29 0 68 4 87 10 42 14 124
71 113 78 -5 3 -11 14 -15 23 -3 10 -19 20 -34 24 -47 10 -53 13 -59 29 -4 8
1 31 10 50 14 28 15 42 7 68 -6 17 -13 45 -16 61 -3 16 -14 30 -25 33 -10 3
-21 17 -25 31 -3 15 -8 35 -11 45 -6 18 -5 18 19 2 34 -22 44 -2 13 23 -70 55
-361 165 -479 181 -43 6 -79 10 -80 10 -1 -1 -12 -4 -25 -6z m-56 -129 c-11
-7 -22 -12 -25 -9 -2 3 4 12 15 19 10 8 21 12 24 9 3 -2 -4 -11 -14 -19z m454
16 c0 -5 -4 -10 -9 -10 -6 0 -13 5 -16 10 -3 6 1 10 9 10 9 0 16 -4 16 -10z
m-77 -32 c23 -17 32 -19 35 -8 3 9 10 6 22 -10 10 -13 37 -31 61 -41 24 -9 45
-23 47 -30 4 -26 -104 -63 -187 -64 -68 0 -76 2 -73 18 3 16 0 17 -18 7 -12
-6 -26 -10 -32 -8 -6 2 14 19 45 36 56 32 57 33 57 77 0 25 3 45 6 45 3 0 20
-10 37 -22z m-34 -200 c43 0 83 2 88 5 20 12 121 0 137 -16 23 -23 21 -57 -4
-57 -10 0 -24 -9 -30 -20 -6 -11 -20 -20 -31 -20 -22 0 -27 -10 -33 -60 -2
-19 -9 -36 -17 -39 -8 -2 -16 -7 -19 -11 -3 -4 -34 2 -70 14 -48 15 -66 26
-69 41 -2 11 -8 24 -15 28 -6 5 -2 7 11 4 21 -5 21 -4 6 19 -15 23 -14 24 3
18 16 -5 15 -3 -3 10 -12 9 -32 20 -45 25 -20 9 -18 10 17 11 l40 2 -49 17
c-57 20 -78 47 -28 36 17 -3 67 -7 111 -7z m171 -198 c0 -5 -5 -10 -11 -10 -5
0 -7 5 -4 10 3 6 8 10 11 10 2 0 4 -4 4 -10z"/>
<path d="M5650 5520 c0 -5 5 -10 10 -10 6 0 10 5 10 10 0 6 -4 10 -10 10 -5 0
-10 -4 -10 -10z"/>
<path d="M4552 4874 c-12 -8 -22 -26 -22 -38 0 -32 69 -93 114 -101 19 -4 44
-18 57 -31 47 -50 70 -18 34 48 -13 24 -29 55 -35 69 -7 18 -28 34 -62 48 -61
25 -58 25 -86 5z"/>
<path d="M4050 4705 c-12 -14 -11 -31 5 -82 6 -17 2 -22 -17 -25 -63 -10 -119
21 -144 81 l-14 34 -59 -74 c-32 -41 -89 -108 -126 -149 -88 -98 -97 -112 -93
-152 3 -29 6 -33 31 -31 15 1 36 11 45 23 15 19 23 20 77 14 42 -5 66 -14 82
-30 20 -20 34 -24 101 -25 42 -1 88 4 102 10 24 12 25 15 28 124 2 91 6 117
23 147 12 19 27 39 35 43 22 13 16 52 -12 81 -30 30 -46 32 -64 11z"/>
<path d="M4380 4653 c0 -5 13 -22 29 -37 23 -22 43 -30 105 -38 43 -5 80 -7
84 -4 10 11 -12 39 -45 58 -33 20 -173 37 -173 21z"/>
<path d="M4670 4480 c-27 -11 -37 -19 -25 -20 11 0 37 -3 58 -6 35 -6 37 -5
37 20 0 30 -8 31 -70 6z"/>
<path d="M4242 4287 c-65 -20 -15 -60 54 -43 27 7 33 40 8 50 -19 7 -19 7 -62
-7z"/>
<path d="M3740 4123 c-15 -6 -30 -23 -30 -33 1 -3 7 -13 14 -23 14 -18 146
-57 193 -57 26 0 71 18 96 38 15 14 17 13 18 -9 l0 -24 16 23 c19 27 73 30 98
6 13 -13 18 -14 31 -3 12 10 20 9 42 -2 15 -8 30 -18 34 -23 4 -6 12 -6 20 0
7 6 43 11 80 12 53 2 71 -1 85 -15 11 -11 34 -18 58 -18 112 -2 180 -14 194
-34 16 -25 38 -26 76 -7 15 8 54 17 86 21 100 12 77 25 -43 25 -81 0 -134 6
-188 20 -110 30 -172 40 -295 50 -62 5 -139 18 -175 30 -52 16 -99 22 -230 25
-91 3 -172 2 -180 -2z"/>
<path d="M4040 3715 c-119 -30 -132 -34 -153 -49 -57 -42 -98 -66 -110 -66 -8
0 -22 -10 -33 -21 -10 -12 -38 -30 -61 -40 -28 -12 -43 -25 -43 -36 0 -10 -4
-24 -9 -32 -7 -11 -13 -10 -32 3 -35 22 -57 6 -35 -25 18 -26 21 -59 6 -59 -5
0 -10 5 -10 10 0 6 -4 10 -9 10 -11 0 -1 -83 11 -91 5 -3 12 -26 15 -50 6 -50
32 -84 71 -92 15 -3 39 -17 54 -31 15 -15 32 -26 38 -26 5 0 10 -7 10 -15 0
-16 78 -65 104 -65 9 0 22 11 28 25 9 21 8 28 -8 46 -11 12 -26 18 -37 15 -13
-3 -21 2 -24 15 -4 16 -11 19 -29 15 -28 -7 -64 13 -112 63 -27 28 -33 42 -31
71 2 19 7 41 13 49 6 7 13 34 16 59 l5 47 76 0 c56 1 83 6 100 18 13 10 42 29
64 43 22 15 54 39 70 55 31 29 123 71 185 84 32 7 49 20 50 36 0 14 -50 39
-87 43 -21 2 -63 -2 -93 -9z"/>
<path d="M3500 3465 c0 -8 5 -15 10 -15 6 0 10 7 10 15 0 8 -4 15 -10 15 -5 0
-10 -7 -10 -15z"/>
<path d="M5320 2130 c0 -5 7 -10 15 -10 8 0 15 5 15 10 0 6 -7 10 -15 10 -8 0
-15 -4 -15 -10z"/>
<path d="M1840 6440 c0 -5 7 -10 15 -10 8 0 15 5 15 10 0 6 -7 10 -15 10 -8 0
-15 -4 -15 -10z"/>
<path d="M6675 6380 c3 -5 8 -10 11 -10 2 0 4 5 4 10 0 6 -5 10 -11 10 -5 0
-7 -4 -4 -10z"/>
<path d="M6893 6258 c-31 -19 -45 -48 -23 -48 6 0 10 4 10 10 0 13 38 37 73
45 26 7 27 5 27 -30 0 -23 4 -34 11 -30 6 4 17 -1 24 -11 19 -25 18 -34 0 -34
-8 0 -15 -3 -15 -8 0 -13 35 -39 48 -34 14 4 17 92 2 92 -5 0 -7 7 -4 15 5 11
-3 17 -25 21 -17 4 -29 10 -26 14 6 10 -20 20 -48 19 -12 0 -37 -10 -54 -21z
m154 -120 c-3 -8 -6 -5 -6 6 -1 11 2 17 5 13 3 -3 4 -12 1 -19z"/>
<path d="M6980 6090 c0 -5 7 -10 16 -10 8 0 12 5 9 10 -3 6 -10 10 -16 10 -5
0 -9 -4 -9 -10z"/>
<path d="M897 6118 c-25 -14 -21 -23 13 -25 20 -1 30 3 30 11 0 19 -22 26 -43
14z"/>
<path d="M800 5645 c0 -9 9 -15 25 -15 28 0 34 15 9 24 -25 10 -34 7 -34 -9z"/>
<path d="M750 5546 c0 -2 7 -9 15 -16 13 -11 14 -10 9 4 -5 14 -24 23 -24 12z"/>
<path d="M77 5010 c-15 -12 -27 -27 -27 -35 0 -7 -7 -15 -15 -19 -22 -8 -18
-39 8 -64 24 -23 71 -30 82 -12 3 6 -1 10 -10 10 -19 0 -65 29 -65 41 0 23 42
45 81 42 38 -3 40 -2 33 19 -8 29 -5 25 -34 33 -18 4 -34 0 -53 -15z"/>
<path d="M7270 4907 c0 -4 9 -16 20 -27 11 -11 20 -16 20 -12 0 5 -9 17 -20
27 -11 10 -20 15 -20 12z"/>
<path d="M7315 4799 c-4 -6 -5 -12 -2 -15 2 -3 7 2 10 11 7 17 1 20 -8 4z"/>
<path d="M1260 4392 c-38 -39 -49 -97 -24 -123 20 -20 64 -30 61 -14 -1 5 -10
10 -19 10 -22 2 -24 4 -32 33 -5 13 -3 22 3 22 6 0 11 9 11 20 0 13 7 20 20
20 11 0 20 4 20 9 0 5 9 11 20 14 11 3 20 1 20 -4 0 -5 6 -9 14 -9 7 0 16 -9
19 -21 3 -12 10 -18 15 -15 15 9 2 48 -22 68 -32 26 -73 22 -106 -10z"/>
<path d="M1361 4298 c-11 -30 -4 -36 14 -12 17 23 19 34 5 34 -6 0 -14 -10
-19 -22z"/>
<path d="M339 4258 c-8 -7 -21 -21 -28 -30 -11 -15 -10 -17 9 -15 15 1 20 6
17 19 -3 11 0 18 8 18 7 0 19 2 27 3 7 2 10 2 6 0 -15 -8 -8 -23 10 -23 11 0
18 8 19 20 1 16 -4 20 -26 20 -15 0 -34 -6 -42 -12z"/>
<path d="M430 4226 c0 -8 5 -18 10 -21 6 -3 10 1 10 9 0 8 -4 18 -10 21 -5 3
-10 -1 -10 -9z"/>
<path d="M302 4174 c-12 -13 -11 -19 2 -39 9 -14 20 -25 25 -25 5 0 16 -3 25
-6 9 -3 16 -1 16 5 0 6 -6 11 -13 11 -21 0 -48 35 -41 54 8 20 3 20 -14 0z"/>
<path d="M597 4203 c-4 -3 -7 -12 -7 -19 0 -11 5 -11 25 -2 13 6 22 15 19 19
-6 11 -28 12 -37 2z"/>
<path d="M647 4146 c10 -13 20 -20 21 -15 7 17 -7 39 -23 39 -14 0 -14 -3 2
-24z"/>
<path d="M507 4118 c-2 -7 -1 -22 4 -33 6 -16 8 -14 8 13 1 33 -4 41 -12 20z"/>
<path d="M530 4060 c0 -9 39 -25 45 -18 2 2 -7 8 -21 15 -13 6 -24 7 -24 3z"/>
<path d="M2781 3579 c0 -8 4 -23 8 -33 7 -19 8 -19 13 2 4 12 0 26 -8 33 -11
9 -14 8 -13 -2z"/>
<path d="M2767 3494 c-11 -14 -16 -28 -13 -31 7 -7 34 15 47 39 15 28 -13 22
-34 -8z"/>
<path d="M8764 6975 c-10 -8 -14 -15 -8 -15 5 0 14 4 20 9 5 5 18 11 29 14 20
5 19 5 -1 6 -11 0 -29 -6 -40 -14z"/>
<path d="M8886 6888 c-6 -28 -2 -48 8 -37 10 11 17 69 8 69 -5 0 -12 -14 -16
-32z"/>
<path d="M8773 6195 c-33 -33 -35 -39 -30 -82 4 -36 12 -53 34 -70 15 -13 33
-21 39 -19 6 3 16 0 21 -5 5 -5 24 -4 46 2 l37 10 0 84 c0 75 -2 85 -22 99
-39 28 -86 20 -125 -19z m87 -57 c0 -5 9 -6 20 -3 14 5 20 2 20 -9 0 -9 -6
-16 -13 -16 -8 0 -14 -12 -14 -30 0 -16 -2 -33 -6 -36 -3 -4 -26 2 -51 12 -43
18 -46 21 -46 57 l0 37 45 -2 c25 0 45 -5 45 -10z"/>
<path d="M84 5784 c3 -9 6 -18 6 -20 0 -2 7 -4 15 -4 18 0 19 12 3 28 -17 17
-31 15 -24 -4z"/>
<path d="M2 5698 c6 -17 36 -34 44 -25 4 4 -1 14 -12 22 -23 18 -37 19 -32 3z"/>
<path d="M6 4633 c-14 -14 -4 -41 24 -61 37 -27 40 -27 40 1 0 36 -45 78 -64
60z"/>
<path d="M0 4485 c0 -9 6 -12 15 -9 8 4 15 10 15 15 0 5 -7 9 -15 9 -8 0 -15
-7 -15 -15z"/>
</g>
</svg>
