<?xml version="1.0" encoding="UTF-8"?><svg id="a" xmlns="http://www.w3.org/2000/svg" viewBox="0 0 483.25 359.45"><defs><style>.b{fill:#4d4d4d;}.c{fill:#534741;}.d{fill:gray;}</style></defs><path d="M378.37,147.84H122.35v164.59h92.02v-7.84h-84.18V155.68h240.35v148.91H227.52l-13.13,28.74h-20.21v26.12h112.34v-26.12h-20.21l-9.55-20.9h101.59V147.84Zm-97.08,193.32h17.4v10.45h-96.66v-10.45h66.1v-7.84h-45.12l9.55-20.9h35.6l13.13,28.74Z"/><polygon points="227.9 206.78 222.36 201.24 193.46 230.13 222.36 259.03 227.9 253.49 204.55 230.13 227.9 206.78"/><polygon points="278.36 201.24 272.81 206.78 296.17 230.13 272.81 253.49 278.36 259.03 307.25 230.13 278.36 201.24"/><rect x="221.54" y="226.21" width="57.65" height="7.84" transform="translate(-64.01 359.79) rotate(-65)"/><path d="M138.02,163.52v133.24h224.67V163.52H138.02Zm216.84,125.4H145.86v-117.56h209v117.56Z"/><polygon class="d" points="53.13 52.32 48.7 47.89 36.04 60.54 48.7 73.2 53.13 68.77 44.9 60.54 53.13 52.32"/><polygon class="d" points="77.47 47.89 73.04 52.32 81.27 60.54 73.04 68.77 77.47 73.2 90.13 60.54 77.47 47.89"/><rect class="d" x="51.56" y="57.41" width="23.04" height="6.26" transform="translate(-18.45 92.13) rotate(-65)"/><path class="d" d="M63.08,19.82c-22.45,0-40.72,18.27-40.72,40.72s18.27,40.72,40.72,40.72,40.72-18.27,40.72-40.72c0-22.45-18.27-40.72-40.72-40.72Zm0,75.18c-19,0-34.46-15.46-34.46-34.46S44.08,26.09,63.08,26.09s34.46,15.46,34.46,34.46-15.46,34.46-34.46,34.46Z"/><path class="d" d="M130.23,78.98l-.07-14.2c-.08-17.38-6.92-33.7-19.27-45.93C98.54,6.61,82.15-.08,64.78,0,47.4,.08,31.09,6.93,18.85,19.27,6.61,31.62-.08,48,0,65.38c.05,10.48,2.51,20.47,7.31,29.7,4.34,8.33,10.53,15.74,17.98,21.5v57.74l74.97,31.9v-55.19h-6.26v45.72l-62.44-26.57v-56.74l-1.28-.94c-7.25-5.33-13.27-12.35-17.41-20.31-4.34-8.34-6.56-17.37-6.6-26.84-.07-15.71,5.98-30.51,17.04-41.67C34.36,12.52,49.1,6.34,64.81,6.27c.09,0,.18,0,.28,0,15.61,0,30.3,6.04,41.39,17.04,11.16,11.06,17.35,25.8,17.42,41.51l.07,15.72,11.7,22.38-11.55,7.78v34.27l-82.1-29.77-2.14,5.89,90.5,32.81v-39.87l13.43-9.04-13.59-26Z"/><polygon class="d" points="217.21 31.59 217.21 37.67 370.1 37.67 370.1 7.29 202.03 7.29 202.03 138.92 324.54 138.92 324.54 132.84 208.1 132.84 208.1 13.37 364.03 13.37 364.03 31.59 217.21 31.59"/><rect class="d" x="217.92" y="19.44" width="6.07" height="6.07"/><rect class="d" x="230.07" y="19.44" width="6.07" height="6.07"/><rect class="d" x="242.22" y="19.44" width="6.07" height="6.07"/><rect class="d" x="266.52" y="19.44" width="87.68" height="6.07"/><path class="d" d="M216.2,49.01V121.5h42.53V49.01h-42.53Zm36.45,66.42h-30.38V55.08h30.38v60.35Z"/><path class="d" d="M264.8,49.01v33.21h91.13V49.01h-91.13Zm85.05,27.14h-78.98v-21.06h78.98v21.06Z"/><rect class="d" x="289.1" y="62.57" width="6.07" height="6.07"/><rect class="d" x="301.25" y="62.57" width="6.07" height="6.07"/><rect class="d" x="313.4" y="62.57" width="6.07" height="6.07"/><rect class="d" x="325.55" y="62.57" width="6.07" height="6.07"/><path class="d" d="M264.8,88.29v33.21h34.43v-33.21h-34.43Zm28.35,27.14h-22.28v-21.06h22.28v21.06h0Z"/><rect class="d" x="319.17" y="88.29" width="33.72" height="6.07"/><rect class="d" x="307.02" y="97.33" width="45.87" height="6.07"/><path class="d" d="M370.1,102.61V46.78h-6.07v55.83c-4.53,.41-8.81,1.73-12.64,3.77h-44.37v6.07h36.24c-.92,.94-1.79,1.93-2.59,2.97h-33.65v6.07h29.89c-2.09,4.36-3.26,9.23-3.26,14.38,0,18.42,14.99,33.41,33.41,33.41s33.41-14.99,33.41-33.41c0-17.4-13.37-31.73-30.38-33.27Zm-3.04,60.61c-15.07,0-27.34-12.26-27.34-27.34s12.26-27.34,27.34-27.34,27.34,12.26,27.34,27.34-12.26,27.34-27.34,27.34Z"/><polygon class="d" points="370.1 132.84 370.1 117.65 364.03 117.65 364.03 132.84 348.84 132.84 348.84 138.92 364.03 138.92 364.03 154.1 370.1 154.1 370.1 138.92 385.29 138.92 385.29 132.84 370.1 132.84"/><path class="b" d="M395.28,216.57v48.03h-15.92v-15.33h-63.01v35.76h63.01v-15.33h21.03v-48.03h12.18v-5.11h-17.29Zm-21.03,63.35h-52.8v-25.55h52.79v25.55h0Z"/><path class="b" d="M454.3,254.37v-17.37h28.95v-35.76h-63.01v35.76h28.95v12.26h-28.95v35.76h28.95v12.26h-28.95v15.33h-19.84v-35.25h-5.11v40.36h24.95v15.33h63.01v-35.76h-28.95v-12.26h28.95v-35.76h-21.29v5.11h16.18v25.55h-52.8v-25.55h28.95Zm-28.95-22.48v-25.55h52.79v25.55h-52.79Zm52.8,70.51v25.55h-52.8v-25.55h52.8Z"/><path class="c" d="M158.6,246.01c-.99-12.88-11.79-23.06-24.93-23.06-3.33,0-6.64,.67-9.69,1.95-8.17-13.95-23.01-22.51-39.31-22.51-24.47,0-44.5,19.4-45.52,43.62-15.17,3.02-26.34,16.44-26.34,32.13,0,18.07,14.7,32.77,32.77,32.77h42.77v-24.35h21.08v35.14h10.33l-20.87,20.87-20.87-20.87h23.5v-5.27h-36.23l33.59,33.59,33.59-33.59h-17.78v-35.14h-31.62v24.35H45.58c-15.16,0-27.5-12.34-27.5-27.5,0-13.81,10.32-25.53,24-27.27l2.32-.29-.02-2.63c0-22.22,18.07-40.29,40.29-40.29,15.18,0,28.92,8.39,35.86,21.9l1.24,2.42,2.38-1.31c2.9-1.6,6.19-2.45,9.52-2.45,10.88,0,19.73,8.85,19.73,19.73v.08c0,.06,0,.13,0,.19l-.03,2.35,2.33,.3c13.69,1.73,24.01,13.46,24.01,27.27,0,15.16-12.34,27.5-27.5,27.5h-29.77v5.27h29.77c18.07,0,32.77-14.7,32.77-32.77,0-15.7-11.19-29.13-26.38-32.14Z"/><polygon class="c" points="131.39 339.25 131.39 354.18 66.39 354.18 66.39 339.25 61.12 339.25 61.12 359.45 136.66 359.45 136.66 339.25 131.39 339.25"/></svg>